<?xml version="1.0" standalone="no"?><!DOCTYPE svg PUBLIC "-//W3C//DTD SVG 1.1//EN" "http://www.w3.org/Graphics/SVG/1.1/DTD/svg11.dtd"><svg t="1743085650953" class="icon" viewBox="0 0 1024 1024" version="1.1" xmlns="http://www.w3.org/2000/svg" p-id="2793" xmlns:xlink="http://www.w3.org/1999/xlink" width="200" height="200"><path d="M0 1024h1024V0H0v1024z" fill="#FFFFFF" opacity=".01" p-id="2794"></path><path d="M381.44 503.04h-5.12v30.293333h3.84v-11.946666l-0.426667-12.373334 10.24 24.32h2.986667l9.813333-24.32-0.426666 12.373334v11.946666h4.266666v-30.293333h-5.12l-10.24 24.746667-9.813333-24.746667z m35.712 7.765333h-3.84v22.613334h3.84v-22.613334z m-3.712-4.394666c0.426667 0.426667 1.28 0.426667 1.706667 0.426666 0.853333 0 1.28 0 1.706666-0.426666 0.426667-0.426667 0.853333-0.853333 0.853334-1.706667 0-0.426667-0.426667-0.853333-0.853334-1.28-0.426667-0.426667-0.853333-0.853333-1.706666-0.853333-0.426667 0-1.28 0.426667-1.706667 0.853333-0.426667 0.426667-0.426667 0.853333-0.426667 1.28 0 0.853333 0 1.28 0.426667 1.706667z m23.978667 12.074666v14.933334h3.84v-14.933334c-0.426667-5.546667-2.56-8.106667-7.253334-8.106666-2.986667 0-5.12 1.28-6.826666 3.413333v-2.986667h-3.84v22.613334h3.84v-16.213334c0.426667-0.853333 1.28-1.706667 2.133333-2.56 0.853333-0.853333 2.133333-0.853333 3.413333-0.853333 1.706667 0 2.56 0.426667 3.413334 0.853333 0.853333 0.853333 0.853333 2.133333 1.28 3.84z m11.093333-5.12c-1.706667 2.133333-2.56 5.12-2.56 8.533334 0 3.84 0.853333 6.4 2.56 8.533333 1.706667 2.133333 3.84 3.413333 6.4 3.413333s4.693333-0.853333 6.4-2.56v1.706667c0 2.133333-0.853333 3.413333-1.706667 4.693333-1.28 0.853333-2.56 1.28-4.266666 1.28a7.68 7.68 0 0 1-6.4-2.986666l-1.706667 2.133333c0.853333 1.28 1.706667 2.56 3.413333 2.986667 1.706667 0.853333 2.986667 1.28 4.693334 1.28 2.986667 0 5.12-0.853333 7.253333-2.56 1.706667-1.706667 2.56-4.266667 2.56-6.826667v-22.186667h-3.84v2.56a7.68 7.68 0 0 0-6.4-2.986666 7.68 7.68 0 0 0-6.4 2.986666z m3.029333 14.805334c0.853333 1.706667 2.56 2.133333 4.266667 2.133333 2.56 0 4.266667-0.853333 5.12-2.986667v-10.24a5.12 5.12 0 0 0-5.12-3.413333c-1.706667 0-3.413333 0.853333-4.266667 2.133333-1.28 1.706667-1.706667 3.84-1.706666 6.4s0.426667 4.693333 1.706666 5.973334z m22.698667-11.52c0-3.413333 0.853333-5.973333 2.56-8.106667 1.28-1.706667 3.413333-2.56 5.973333-2.56 2.133333 0 3.413333 0.426667 4.693334 1.706667 1.28 0.853333 2.133333 2.56 2.133333 5.12h4.266667a14.208 14.208 0 0 0-3.413334-7.68 11.946667 11.946667 0 0 0-7.68-2.56c-2.56 0-4.693333 0.426667-6.4 1.706666-2.133333 1.28-3.413333 2.986667-4.266666 5.12-1.28 2.133333-1.706667 4.266667-1.706667 7.253334v2.986666c0 4.266667 1.28 7.68 3.413333 10.24s4.693333 3.84 8.533334 3.84c3.413333 0 5.973333-0.853333 7.68-2.56 2.133333-1.706667 3.413333-4.266667 3.84-7.253333h-4.266667c-0.426667 2.133333-0.853333 3.84-2.133333 5.12-1.28 0.853333-2.986667 1.28-5.12 1.28-2.56 0-4.693333-0.853333-5.973334-2.56a15.189333 15.189333 0 0 1-2.133333-8.106667v-2.986666z m38.4 14.634666v2.133334h3.84v-22.613334h-3.84v16.213334c-1.28 2.56-2.986667 3.413333-5.973333 3.413333s-4.266667-1.706667-4.266667-5.12v-14.506667h-3.84v14.506667c0 2.986667 0.853333 5.12 1.706667 6.4 1.28 1.28 3.413333 2.133333 5.546666 2.133333 2.986667 0 5.12-0.853333 6.826667-2.56z m19.2-20.394666h-4.266667v-5.546667h-3.84v5.546667h-4.266666v2.986666h4.266666v14.08c0 1.706667 0.426667 2.986667 1.28 4.266667 0.853333 0.853333 2.133333 1.706667 3.84 1.706667 0.853333 0 1.706667-0.426667 2.986667-0.426667v-3.413333c-0.853333 0.426667-1.28 0.426667-2.133333 0.426666-0.853333 0-1.28-0.426667-1.706667-0.853333-0.426667-0.426667-0.426667-0.853333-0.426667-1.706667v-14.08h4.266667v-2.986666z m9.301333 17.834666a8.96 8.96 0 0 1-2.133333-5.546666h15.36v-1.706667c0-3.413333-0.853333-6.4-2.56-8.106667-1.706667-2.133333-3.84-2.986667-6.826667-2.986666-1.706667 0-3.413333 0.426667-5.12 1.706666-1.28 0.853333-2.56 2.133333-3.413333 3.84a13.653333 13.653333 0 0 0-1.28 5.973334v0.853333c0 3.413333 0.853333 5.973333 2.986667 8.106667 1.706667 1.706667 4.266667 2.986667 7.253333 2.986666 3.84 0 6.826667-1.706667 8.533333-4.266666l-2.133333-2.133334c-0.853333 0.853333-1.706667 1.706667-2.56 2.133334-0.853333 0.853333-2.133333 0.853333-3.413333 0.853333-2.133333 0-3.413333-0.426667-4.693334-1.706667z m0.128-13.482666c-1.28 1.28-1.706667 2.56-2.133333 4.693333h11.093333v-0.426667c0-1.706667-0.426667-3.413333-1.28-4.266666-0.853333-1.28-2.133333-1.706667-3.84-1.706667-1.706667 0-2.986667 0.426667-3.84 1.706667z m18.005334 17.578666c0.426667 0.426667 1.28 0.853333 2.133333 0.853334 0.426667 0 1.28-0.426667 1.706667-0.853334 0.426667-0.426667 0.426667-0.853333 0.426666-1.706666 0-0.426667 0-0.853333-0.426666-1.28a3.242667 3.242667 0 0 0-1.706667-0.853334c-0.853333 0-1.706667 0.426667-2.133333 0.853334-0.426667 0.426667-0.426667 0.853333-0.426667 1.28 0 0.853333 0 1.28 0.426667 1.706666z m12.288-1.962666c2.133333 1.706667 4.266667 2.986667 7.68 2.986666 1.28 0 2.986667-0.426667 4.266666-1.28 1.28-0.426667 2.133333-1.28 2.986667-2.56 0.853333-1.28 1.28-2.56 1.706667-3.84h-3.84c0 1.28-0.853333 2.56-1.706667 2.986667-0.853333 0.853333-2.133333 1.28-3.413333 1.28-2.133333 0-3.84-0.426667-4.693334-2.133333-1.28-1.28-1.706667-2.986667-1.706666-5.973334v-0.426666c0-2.986667 0.426667-4.693333 1.706666-6.4a5.248 5.248 0 0 1 8.106667-0.426667c0.853333 0.853333 1.706667 2.133333 1.706667 3.413333h3.84a10.026667 10.026667 0 0 0-2.986667-5.973333 10.496 10.496 0 0 0-6.4-2.133333c-1.706667 0-3.84 0.426667-5.12 1.28-1.706667 1.28-2.56 2.56-3.413333 4.266666-0.853333 1.706667-1.28 3.413333-1.28 5.546667v0.853333c0 3.413333 0.853333 6.4 2.56 8.533334z m24.874666-19.2c-1.706667 1.28-2.986667 2.56-3.84 4.266666a13.653333 13.653333 0 0 0-1.28 5.973334v0.426666c0 3.413333 0.853333 5.973333 2.986667 8.106667 1.706667 2.133333 4.266667 3.413333 7.253333 3.413333 2.133333 0 3.84-0.426667 5.546667-1.706666 1.28-0.853333 2.56-2.133333 3.413333-3.84a13.653333 13.653333 0 0 0 1.28-5.973334v-0.426666c0-3.413333-0.853333-6.4-2.986666-8.533334-1.706667-2.133333-4.266667-2.986667-7.253334-2.986666-2.133333 0-3.84 0.426667-5.12 1.28z m0.469334 16.810666c1.28 1.28 2.56 2.133333 4.693333 2.133334s3.413333-0.853333 4.693333-2.133334c1.28-1.706667 1.706667-3.84 1.706667-6.826666 0-2.133333-0.426667-4.266667-1.706667-5.973334a6.826667 6.826667 0 0 0-4.693333-2.133333c-2.133333 0-3.413333 0.853333-4.693333 2.133333-1.28 1.706667-1.706667 3.84-1.706667 6.826667 0 2.133333 0.426667 4.266667 1.706667 5.973333z m19.754666 4.949334h3.84v-16.64c0.853333-2.133333 2.56-2.986667 5.12-2.986667 3.413333 0 4.693333 1.706667 4.693334 4.693333v14.933334h4.266666v-14.933334c0-1.706667 0.426667-2.56 1.28-3.413333a5.973333 5.973333 0 0 1 3.84-1.28c1.706667 0 2.986667 0.426667 3.413334 1.28 0.853333 0.426667 1.28 1.706667 1.28 3.413333v14.933334h3.84v-15.36c0-5.12-2.56-7.68-7.68-7.68-1.28 0-2.986667 0.426667-4.266667 0.853333-0.853333 0.853333-2.133333 1.706667-2.56 2.986667-1.28-2.56-3.413333-3.84-6.826667-3.84a7.68 7.68 0 0 0-6.4 2.986666v-2.56h-3.84v22.613334z" fill="#F2F4F6" p-id="2795"></path><path d="M896 407.466667V810.666667c0 46.933333-38.4 85.333333-85.333333 85.333333H213.333333c-46.933333 0-85.333333-38.4-85.333333-85.333333V407.466667c0-23.04 6.4-45.653333 18.346667-65.706667l103.253333-172.373333C264.96 143.786667 292.693333 128 322.986667 128h378.026666c30.293333 0 58.026667 15.786667 73.386667 41.386667l103.253333 172.373333c11.946667 20.053333 18.346667 42.666667 18.346667 65.706667zM322.986667 213.333333l-102.4 170.666667H469.333333V213.333333H322.986667zM554.666667 213.333333v170.666667h248.746666l-102.4-170.666667H554.666667z" fill="#09244B" p-id="2796"></path></svg>